<svg width="390" height="844" viewBox="0 0 390 844" fill="none" xmlns="http://www.w3.org/2000/svg">
  <rect width="390" height="844" rx="36" fill="#09090B"/>
  <rect x="12" y="12" width="366" height="820" rx="28" fill="#0F1014" stroke="#2A2D33"/>
  <rect x="36" y="28" width="120" height="6" rx="3" fill="#F4F4F5" fill-opacity=".9"/>

  <rect x="24" y="58" width="342" height="72" rx="22" fill="#15161A" stroke="#2D3139"/>
  <text x="32" y="84" fill="#F6C36E" font-size="22" font-family="Arial" font-weight="700">Vani Player</text>
  <text x="32" y="104" fill="#71717A" font-size="10" font-family="Arial" letter-spacing="2">SEARCH-FOCUSED MODE</text>
  <rect x="298" y="74" width="48" height="40" rx="14" fill="#1E2026"/>
  <path d="M314 94H330" stroke="#F5F5F5" stroke-width="2.5" stroke-linecap="round"/>

  <rect x="24" y="146" width="342" height="52" rx="18" fill="#F5F5F5"/>
  <circle cx="49" cy="172" r="9" stroke="#111214" stroke-width="2.2"/>
  <line x1="56" y1="179" x2="61" y2="184" stroke="#111214" stroke-width="2.2"/>
  <text x="70" y="177" fill="#111214" font-size="15" font-family="Arial">krishna</text>
  <circle cx="336" cy="172" r="14" fill="#E5E7EB"/>
  <path d="M330 166L342 178" stroke="#111214" stroke-width="2.3" stroke-linecap="round"/>
  <path d="M342 166L330 178" stroke="#111214" stroke-width="2.3" stroke-linecap="round"/>

  <text x="28" y="224" fill="#A1A1AA" font-size="11" font-family="Arial" font-weight="700" letter-spacing="1.2">RECENT SEARCHES</text>
  <rect x="24" y="236" width="86" height="34" rx="17" fill="#1B1C20" stroke="#2D3139"/>
  <text x="67" y="257" text-anchor="middle" fill="#F5F5F5" font-size="12" font-family="Arial">Bhagavad</text>
  <rect x="118" y="236" width="72" height="34" rx="17" fill="#1B1C20" stroke="#2D3139"/>
  <text x="154" y="257" text-anchor="middle" fill="#F5F5F5" font-size="12" font-family="Arial">Kirtan</text>
  <rect x="198" y="236" width="92" height="34" rx="17" fill="#1B1C20" stroke="#2D3139"/>
  <text x="244" y="257" text-anchor="middle" fill="#F5F5F5" font-size="12" font-family="Arial">Prabhupada</text>

  <text x="28" y="302" fill="#F5F5F5" font-size="14" font-family="Arial" font-weight="700">36 results</text>
  <g>
    <rect x="24" y="318" width="342" height="74" rx="18" fill="#17181C" stroke="#333741"/>
    <rect x="36" y="330" width="48" height="48" rx="10" fill="#23262D"/>
    <rect x="96" y="334" width="214" height="10" rx="5" fill="#F4F4F5"/>
    <rect x="96" y="351" width="124" height="8" rx="4" fill="#8D95A3"/>
    <rect x="96" y="367" width="116" height="4" rx="2" fill="#2A2D33"/>
    <rect x="96" y="367" width="72" height="4" rx="2" fill="#F7C566"/>
  </g>
  <g>
    <rect x="24" y="404" width="342" height="74" rx="18" fill="#17181C" stroke="#333741"/>
    <rect x="36" y="416" width="48" height="48" rx="10" fill="#23262D"/>
    <rect x="96" y="420" width="194" height="10" rx="5" fill="#F4F4F5"/>
    <rect x="96" y="437" width="134" height="8" rx="4" fill="#8D95A3"/>
    <text x="96" y="459" fill="#4ADE80" font-size="11" font-family="Arial" font-weight="700">Listened</text>
  </g>
  <g>
    <rect x="24" y="490" width="342" height="74" rx="18" fill="#17181C" stroke="#333741"/>
    <rect x="36" y="502" width="48" height="48" rx="10" fill="#23262D"/>
    <rect x="96" y="506" width="226" height="10" rx="5" fill="#F4F4F5"/>
    <rect x="96" y="523" width="144" height="8" rx="4" fill="#8D95A3"/>
    <text x="96" y="545" fill="#F7C566" font-size="11" font-family="Arial" font-weight="700">Resume 18:12</text>
  </g>

  <rect x="48" y="654" width="294" height="88" rx="22" fill="#17181C" stroke="#333741"/>
  <text x="195" y="687" text-anchor="middle" fill="#F5F5F5" font-size="16" font-family="Arial" font-weight="700">No exact match?</text>
  <text x="195" y="710" text-anchor="middle" fill="#A1A1AA" font-size="12" font-family="Arial">Try clearing the search or opening the tab root.</text>
  <rect x="116" y="724" width="158" height="36" rx="18" fill="#F7C566"/>
  <text x="195" y="746" text-anchor="middle" fill="#111214" font-size="13" font-family="Arial" font-weight="700">Clear Search</text>
</svg>
